<mxfile host="app.diagrams.net" agent="Mozilla/5.0 (Windows NT 10.0; Win64; x64) AppleWebKit/537.36 (KHTML, like Gecko) Chrome/139.0.0.0 Safari/537.36" version="28.1.0">
  <diagram name="Página-1" id="58KHKjolmZH9Jl-Zs60m">
    <mxGraphModel dx="1426" dy="777" grid="1" gridSize="10" guides="1" tooltips="1" connect="1" arrows="1" fold="1" page="1" pageScale="1" pageWidth="827" pageHeight="1169" math="0" shadow="0">
      <root>
        <mxCell id="0" />
        <mxCell id="1" parent="0" />
        <mxCell id="pejVzQ1x4Z5_xWOsWl8--1" style="rounded=0;orthogonalLoop=1;jettySize=auto;html=1;entryX=0;entryY=1;entryDx=0;entryDy=0;" parent="1" source="pejVzQ1x4Z5_xWOsWl8--2" target="pejVzQ1x4Z5_xWOsWl8--5" edge="1">
          <mxGeometry relative="1" as="geometry" />
        </mxCell>
        <mxCell id="pejVzQ1x4Z5_xWOsWl8--2" value="Técnico" style="shape=umlActor;verticalLabelPosition=bottom;verticalAlign=top;html=1;outlineConnect=0;" parent="1" vertex="1">
          <mxGeometry x="170" y="480" width="30" height="60" as="geometry" />
        </mxCell>
        <mxCell id="pejVzQ1x4Z5_xWOsWl8--3" style="rounded=0;orthogonalLoop=1;jettySize=auto;html=1;entryX=0;entryY=0;entryDx=0;entryDy=0;" parent="1" source="pejVzQ1x4Z5_xWOsWl8--4" target="pejVzQ1x4Z5_xWOsWl8--5" edge="1">
          <mxGeometry relative="1" as="geometry" />
        </mxCell>
        <mxCell id="pejVzQ1x4Z5_xWOsWl8--4" value="Administrador" style="shape=umlActor;verticalLabelPosition=bottom;verticalAlign=top;html=1;outlineConnect=0;" parent="1" vertex="1">
          <mxGeometry x="170" y="250" width="30" height="60" as="geometry" />
        </mxCell>
        <mxCell id="VtQMLGaZWS-4TdvGDht8-14" style="rounded=0;orthogonalLoop=1;jettySize=auto;html=1;exitX=1;exitY=1;exitDx=0;exitDy=0;entryX=0;entryY=0.5;entryDx=0;entryDy=0;dashed=1;dashPattern=8 8;" parent="1" source="pejVzQ1x4Z5_xWOsWl8--5" target="a221Flo-CQe9ytXhki4E-28" edge="1">
          <mxGeometry relative="1" as="geometry" />
        </mxCell>
        <mxCell id="VtQMLGaZWS-4TdvGDht8-15" value="&amp;lt;&amp;lt;indclude&amp;gt;&amp;gt;" style="edgeLabel;html=1;align=center;verticalAlign=middle;resizable=0;points=[];" parent="VtQMLGaZWS-4TdvGDht8-14" vertex="1" connectable="0">
          <mxGeometry x="-0.0795" y="-1" relative="1" as="geometry">
            <mxPoint as="offset" />
          </mxGeometry>
        </mxCell>
        <mxCell id="a221Flo-CQe9ytXhki4E-2" style="rounded=0;orthogonalLoop=1;jettySize=auto;html=1;exitX=0.5;exitY=1;exitDx=0;exitDy=0;dashed=1;dashPattern=8 8;" edge="1" parent="1" source="pejVzQ1x4Z5_xWOsWl8--5" target="a221Flo-CQe9ytXhki4E-1">
          <mxGeometry relative="1" as="geometry" />
        </mxCell>
        <mxCell id="a221Flo-CQe9ytXhki4E-3" value="&amp;lt;&amp;lt;include&amp;gt;&amp;gt;" style="edgeLabel;html=1;align=center;verticalAlign=middle;resizable=0;points=[];" vertex="1" connectable="0" parent="a221Flo-CQe9ytXhki4E-2">
          <mxGeometry x="-0.0207" relative="1" as="geometry">
            <mxPoint as="offset" />
          </mxGeometry>
        </mxCell>
        <mxCell id="a221Flo-CQe9ytXhki4E-14" style="rounded=0;orthogonalLoop=1;jettySize=auto;html=1;exitX=0.5;exitY=1;exitDx=0;exitDy=0;entryX=0.5;entryY=0;entryDx=0;entryDy=0;dashed=1;dashPattern=8 8;" edge="1" parent="1" source="pejVzQ1x4Z5_xWOsWl8--5" target="a221Flo-CQe9ytXhki4E-13">
          <mxGeometry relative="1" as="geometry" />
        </mxCell>
        <mxCell id="a221Flo-CQe9ytXhki4E-15" value="&amp;lt;&amp;lt;include&amp;gt;&amp;gt;" style="edgeLabel;html=1;align=center;verticalAlign=middle;resizable=0;points=[];" vertex="1" connectable="0" parent="a221Flo-CQe9ytXhki4E-14">
          <mxGeometry x="0.0044" y="-1" relative="1" as="geometry">
            <mxPoint as="offset" />
          </mxGeometry>
        </mxCell>
        <mxCell id="pejVzQ1x4Z5_xWOsWl8--5" value="ViewCases" style="ellipse;whiteSpace=wrap;html=1;" parent="1" vertex="1">
          <mxGeometry x="434" y="330" width="120" height="80" as="geometry" />
        </mxCell>
        <mxCell id="pejVzQ1x4Z5_xWOsWl8--6" value="" style="endArrow=none;html=1;rounded=0;startArrow=classic;startFill=1;endFill=0;" parent="1" edge="1">
          <mxGeometry width="50" height="50" relative="1" as="geometry">
            <mxPoint x="184.5" y="470" as="sourcePoint" />
            <mxPoint x="184.5" y="340" as="targetPoint" />
          </mxGeometry>
        </mxCell>
        <mxCell id="toCsDj9fuco49Wam5Kvl-1" value="&lt;font style=&quot;font-size: 18px;&quot;&gt;Caracteristica&lt;/font&gt;&lt;div&gt;&lt;font style=&quot;font-size: 18px;&quot;&gt;CASO&lt;/font&gt;&lt;/div&gt;" style="text;html=1;align=center;verticalAlign=middle;whiteSpace=wrap;rounded=0;" parent="1" vertex="1">
          <mxGeometry x="324" y="50" width="206" height="30" as="geometry" />
        </mxCell>
        <mxCell id="VtQMLGaZWS-4TdvGDht8-3" style="rounded=0;orthogonalLoop=1;jettySize=auto;html=1;entryX=1;entryY=0.5;entryDx=0;entryDy=0;dashed=1;dashPattern=8 8;" parent="1" source="VtQMLGaZWS-4TdvGDht8-2" target="pejVzQ1x4Z5_xWOsWl8--5" edge="1">
          <mxGeometry relative="1" as="geometry" />
        </mxCell>
        <mxCell id="VtQMLGaZWS-4TdvGDht8-4" value="&amp;lt;&amp;lt;extend&amp;gt;&amp;gt;" style="edgeLabel;html=1;align=center;verticalAlign=middle;resizable=0;points=[];" parent="VtQMLGaZWS-4TdvGDht8-3" vertex="1" connectable="0">
          <mxGeometry x="-0.0404" y="1" relative="1" as="geometry">
            <mxPoint x="-26" y="-14" as="offset" />
          </mxGeometry>
        </mxCell>
        <mxCell id="VtQMLGaZWS-4TdvGDht8-2" value="FilterCases" style="ellipse;whiteSpace=wrap;html=1;" parent="1" vertex="1">
          <mxGeometry x="620" y="220" width="120" height="80" as="geometry" />
        </mxCell>
        <mxCell id="VtQMLGaZWS-4TdvGDht8-6" style="rounded=0;orthogonalLoop=1;jettySize=auto;html=1;entryX=0.5;entryY=0;entryDx=0;entryDy=0;exitX=0;exitY=0.5;exitDx=0;exitDy=0;" parent="1" source="VtQMLGaZWS-4TdvGDht8-5" target="VtQMLGaZWS-4TdvGDht8-2" edge="1">
          <mxGeometry relative="1" as="geometry" />
        </mxCell>
        <mxCell id="VtQMLGaZWS-4TdvGDht8-5" value="FilterByClient" style="ellipse;whiteSpace=wrap;html=1;" parent="1" vertex="1">
          <mxGeometry x="850" y="60" width="120" height="80" as="geometry" />
        </mxCell>
        <mxCell id="VtQMLGaZWS-4TdvGDht8-10" style="rounded=0;orthogonalLoop=1;jettySize=auto;html=1;entryX=0.775;entryY=0.113;entryDx=0;entryDy=0;exitX=0;exitY=0.5;exitDx=0;exitDy=0;entryPerimeter=0;" parent="1" source="VtQMLGaZWS-4TdvGDht8-7" target="VtQMLGaZWS-4TdvGDht8-2" edge="1">
          <mxGeometry relative="1" as="geometry" />
        </mxCell>
        <mxCell id="VtQMLGaZWS-4TdvGDht8-7" value="FilterByActor" style="ellipse;whiteSpace=wrap;html=1;" parent="1" vertex="1">
          <mxGeometry x="840" y="150" width="120" height="80" as="geometry" />
        </mxCell>
        <mxCell id="VtQMLGaZWS-4TdvGDht8-11" style="rounded=0;orthogonalLoop=1;jettySize=auto;html=1;entryX=1;entryY=0.5;entryDx=0;entryDy=0;" parent="1" source="VtQMLGaZWS-4TdvGDht8-8" target="VtQMLGaZWS-4TdvGDht8-2" edge="1">
          <mxGeometry relative="1" as="geometry" />
        </mxCell>
        <mxCell id="VtQMLGaZWS-4TdvGDht8-8" value="FilterByPriority" style="ellipse;whiteSpace=wrap;html=1;" parent="1" vertex="1">
          <mxGeometry x="840" y="240" width="120" height="80" as="geometry" />
        </mxCell>
        <mxCell id="VtQMLGaZWS-4TdvGDht8-12" style="rounded=0;orthogonalLoop=1;jettySize=auto;html=1;" parent="1" source="VtQMLGaZWS-4TdvGDht8-9" edge="1">
          <mxGeometry relative="1" as="geometry">
            <mxPoint x="722" y="288" as="targetPoint" />
          </mxGeometry>
        </mxCell>
        <mxCell id="VtQMLGaZWS-4TdvGDht8-9" value="FilterBySegment" style="ellipse;whiteSpace=wrap;html=1;" parent="1" vertex="1">
          <mxGeometry x="840" y="330" width="120" height="80" as="geometry" />
        </mxCell>
        <mxCell id="VtQMLGaZWS-4TdvGDht8-17" style="rounded=0;orthogonalLoop=1;jettySize=auto;html=1;exitX=0;exitY=0.5;exitDx=0;exitDy=0;entryX=1;entryY=0.5;entryDx=0;entryDy=0;" parent="1" source="VtQMLGaZWS-4TdvGDht8-16" target="a221Flo-CQe9ytXhki4E-28" edge="1">
          <mxGeometry relative="1" as="geometry">
            <mxPoint x="1282.4264068711927" y="596.7157287525383" as="targetPoint" />
          </mxGeometry>
        </mxCell>
        <mxCell id="VtQMLGaZWS-4TdvGDht8-16" value="ViewStatus" style="ellipse;whiteSpace=wrap;html=1;" parent="1" vertex="1">
          <mxGeometry x="1160" y="500" width="120" height="80" as="geometry" />
        </mxCell>
        <mxCell id="VtQMLGaZWS-4TdvGDht8-18" style="rounded=0;orthogonalLoop=1;jettySize=auto;html=1;exitX=0;exitY=0.5;exitDx=0;exitDy=0;entryX=0.658;entryY=0.95;entryDx=0;entryDy=0;entryPerimeter=0;" parent="1" source="VtQMLGaZWS-4TdvGDht8-19" target="a221Flo-CQe9ytXhki4E-28" edge="1">
          <mxGeometry relative="1" as="geometry">
            <mxPoint x="1297" y="615" as="targetPoint" />
          </mxGeometry>
        </mxCell>
        <mxCell id="VtQMLGaZWS-4TdvGDht8-19" value="ViewSegment" style="ellipse;whiteSpace=wrap;html=1;" parent="1" vertex="1">
          <mxGeometry x="1100" y="670" width="120" height="80" as="geometry" />
        </mxCell>
        <mxCell id="VtQMLGaZWS-4TdvGDht8-21" style="rounded=0;orthogonalLoop=1;jettySize=auto;html=1;entryX=1;entryY=1;entryDx=0;entryDy=0;" parent="1" source="VtQMLGaZWS-4TdvGDht8-20" target="a221Flo-CQe9ytXhki4E-28" edge="1">
          <mxGeometry relative="1" as="geometry">
            <mxPoint x="1296" y="642" as="targetPoint" />
          </mxGeometry>
        </mxCell>
        <mxCell id="VtQMLGaZWS-4TdvGDht8-20" value="ViewTime" style="ellipse;whiteSpace=wrap;html=1;" parent="1" vertex="1">
          <mxGeometry x="1140" y="590" width="120" height="80" as="geometry" />
        </mxCell>
        <mxCell id="VtQMLGaZWS-4TdvGDht8-23" style="rounded=0;orthogonalLoop=1;jettySize=auto;html=1;" parent="1" source="VtQMLGaZWS-4TdvGDht8-24" target="a221Flo-CQe9ytXhki4E-28" edge="1">
          <mxGeometry relative="1" as="geometry">
            <mxPoint x="1022.4264068711927" y="583.2842712474617" as="targetPoint" />
          </mxGeometry>
        </mxCell>
        <mxCell id="VtQMLGaZWS-4TdvGDht8-24" value="View&lt;div&gt;QuantityEquipment&lt;/div&gt;" style="ellipse;whiteSpace=wrap;html=1;" parent="1" vertex="1">
          <mxGeometry x="1155" y="400" width="130" height="80" as="geometry" />
        </mxCell>
        <mxCell id="a221Flo-CQe9ytXhki4E-1" value="ManageActionButtons" style="ellipse;whiteSpace=wrap;html=1;" vertex="1" parent="1">
          <mxGeometry x="554" y="940" width="120" height="80" as="geometry" />
        </mxCell>
        <mxCell id="a221Flo-CQe9ytXhki4E-5" style="rounded=0;orthogonalLoop=1;jettySize=auto;html=1;entryX=1;entryY=0;entryDx=0;entryDy=0;" edge="1" parent="1" source="a221Flo-CQe9ytXhki4E-4" target="a221Flo-CQe9ytXhki4E-1">
          <mxGeometry relative="1" as="geometry" />
        </mxCell>
        <mxCell id="a221Flo-CQe9ytXhki4E-4" value="ViewDetails" style="ellipse;whiteSpace=wrap;html=1;" vertex="1" parent="1">
          <mxGeometry x="820" y="850" width="120" height="80" as="geometry" />
        </mxCell>
        <mxCell id="a221Flo-CQe9ytXhki4E-6" style="rounded=0;orthogonalLoop=1;jettySize=auto;html=1;entryX=1;entryY=0.5;entryDx=0;entryDy=0;" edge="1" parent="1" source="a221Flo-CQe9ytXhki4E-7" target="a221Flo-CQe9ytXhki4E-1">
          <mxGeometry relative="1" as="geometry">
            <mxPoint x="656" y="1052" as="targetPoint" />
          </mxGeometry>
        </mxCell>
        <mxCell id="a221Flo-CQe9ytXhki4E-7" value="GenerateReport" style="ellipse;whiteSpace=wrap;html=1;" vertex="1" parent="1">
          <mxGeometry x="820" y="950" width="120" height="80" as="geometry" />
        </mxCell>
        <mxCell id="a221Flo-CQe9ytXhki4E-9" style="rounded=0;orthogonalLoop=1;jettySize=auto;html=1;" edge="1" parent="1" source="a221Flo-CQe9ytXhki4E-10" target="a221Flo-CQe9ytXhki4E-1">
          <mxGeometry relative="1" as="geometry">
            <mxPoint x="670" y="1050" as="targetPoint" />
          </mxGeometry>
        </mxCell>
        <mxCell id="a221Flo-CQe9ytXhki4E-10" value="StartCase" style="ellipse;whiteSpace=wrap;html=1;" vertex="1" parent="1">
          <mxGeometry x="816" y="1050" width="120" height="80" as="geometry" />
        </mxCell>
        <mxCell id="a221Flo-CQe9ytXhki4E-11" style="rounded=0;orthogonalLoop=1;jettySize=auto;html=1;entryX=0.775;entryY=0.875;entryDx=0;entryDy=0;entryPerimeter=0;" edge="1" parent="1" source="a221Flo-CQe9ytXhki4E-12" target="a221Flo-CQe9ytXhki4E-1">
          <mxGeometry relative="1" as="geometry">
            <mxPoint x="1010" y="1100" as="targetPoint" />
          </mxGeometry>
        </mxCell>
        <mxCell id="a221Flo-CQe9ytXhki4E-12" value="CloseCase" style="ellipse;whiteSpace=wrap;html=1;" vertex="1" parent="1">
          <mxGeometry x="810" y="1150" width="120" height="80" as="geometry" />
        </mxCell>
        <mxCell id="a221Flo-CQe9ytXhki4E-42" style="rounded=0;orthogonalLoop=1;jettySize=auto;html=1;exitX=1;exitY=1;exitDx=0;exitDy=0;dashed=1;dashPattern=8 8;" edge="1" parent="1" source="a221Flo-CQe9ytXhki4E-13" target="a221Flo-CQe9ytXhki4E-16">
          <mxGeometry relative="1" as="geometry" />
        </mxCell>
        <mxCell id="a221Flo-CQe9ytXhki4E-43" value="&amp;lt;&amp;lt;include&amp;gt;&amp;gt;" style="edgeLabel;html=1;align=center;verticalAlign=middle;resizable=0;points=[];" vertex="1" connectable="0" parent="a221Flo-CQe9ytXhki4E-42">
          <mxGeometry x="-0.2042" y="-2" relative="1" as="geometry">
            <mxPoint as="offset" />
          </mxGeometry>
        </mxCell>
        <mxCell id="a221Flo-CQe9ytXhki4E-13" value="ManageForm" style="ellipse;whiteSpace=wrap;html=1;" vertex="1" parent="1">
          <mxGeometry x="314" y="940" width="120" height="80" as="geometry" />
        </mxCell>
        <mxCell id="a221Flo-CQe9ytXhki4E-16" value="RecordMileage" style="ellipse;whiteSpace=wrap;html=1;" vertex="1" parent="1">
          <mxGeometry x="444" y="1099.46" width="120" height="80" as="geometry" />
        </mxCell>
        <mxCell id="a221Flo-CQe9ytXhki4E-22" style="rounded=0;orthogonalLoop=1;jettySize=auto;html=1;entryX=1;entryY=1;entryDx=0;entryDy=0;" edge="1" parent="1" source="a221Flo-CQe9ytXhki4E-20" target="a221Flo-CQe9ytXhki4E-16">
          <mxGeometry relative="1" as="geometry" />
        </mxCell>
        <mxCell id="a221Flo-CQe9ytXhki4E-20" value="RecordInitialMileage" style="ellipse;whiteSpace=wrap;html=1;" vertex="1" parent="1">
          <mxGeometry x="530" y="1239.46" width="120" height="80" as="geometry" />
        </mxCell>
        <mxCell id="a221Flo-CQe9ytXhki4E-24" style="rounded=0;orthogonalLoop=1;jettySize=auto;html=1;entryX=0;entryY=1;entryDx=0;entryDy=0;" edge="1" parent="1" source="a221Flo-CQe9ytXhki4E-23" target="a221Flo-CQe9ytXhki4E-16">
          <mxGeometry relative="1" as="geometry" />
        </mxCell>
        <mxCell id="a221Flo-CQe9ytXhki4E-23" value="RecordFinalMileage" style="ellipse;whiteSpace=wrap;html=1;" vertex="1" parent="1">
          <mxGeometry x="370" y="1239.46" width="120" height="80" as="geometry" />
        </mxCell>
        <mxCell id="a221Flo-CQe9ytXhki4E-25" value="ManageEquipment" style="ellipse;whiteSpace=wrap;html=1;" vertex="1" parent="1">
          <mxGeometry x="125" y="900" width="120" height="80" as="geometry" />
        </mxCell>
        <mxCell id="a221Flo-CQe9ytXhki4E-26" style="rounded=0;orthogonalLoop=1;jettySize=auto;html=1;exitX=0.5;exitY=1;exitDx=0;exitDy=0;entryX=0.5;entryY=0;entryDx=0;entryDy=0;dashed=1;dashPattern=8 8;" edge="1" parent="1" source="pejVzQ1x4Z5_xWOsWl8--5" target="a221Flo-CQe9ytXhki4E-25">
          <mxGeometry relative="1" as="geometry">
            <mxPoint x="570" y="840" as="sourcePoint" />
            <mxPoint x="450" y="1370" as="targetPoint" />
          </mxGeometry>
        </mxCell>
        <mxCell id="a221Flo-CQe9ytXhki4E-27" value="&amp;lt;&amp;lt;include&amp;gt;&amp;gt;" style="edgeLabel;html=1;align=center;verticalAlign=middle;resizable=0;points=[];" vertex="1" connectable="0" parent="a221Flo-CQe9ytXhki4E-26">
          <mxGeometry x="0.0044" y="-1" relative="1" as="geometry">
            <mxPoint as="offset" />
          </mxGeometry>
        </mxCell>
        <mxCell id="a221Flo-CQe9ytXhki4E-28" value="ManageInformación" style="ellipse;whiteSpace=wrap;html=1;" vertex="1" parent="1">
          <mxGeometry x="910" y="520" width="120" height="80" as="geometry" />
        </mxCell>
        <mxCell id="a221Flo-CQe9ytXhki4E-38" style="rounded=0;orthogonalLoop=1;jettySize=auto;html=1;entryX=0.325;entryY=0.963;entryDx=0;entryDy=0;entryPerimeter=0;" edge="1" parent="1" source="a221Flo-CQe9ytXhki4E-32" target="a221Flo-CQe9ytXhki4E-28">
          <mxGeometry relative="1" as="geometry" />
        </mxCell>
        <mxCell id="a221Flo-CQe9ytXhki4E-32" value="ViewAssigned technician" style="ellipse;whiteSpace=wrap;html=1;" vertex="1" parent="1">
          <mxGeometry x="980" y="720" width="120" height="80" as="geometry" />
        </mxCell>
        <mxCell id="a221Flo-CQe9ytXhki4E-40" style="rounded=0;orthogonalLoop=1;jettySize=auto;html=1;entryX=0;entryY=1;entryDx=0;entryDy=0;" edge="1" parent="1" source="a221Flo-CQe9ytXhki4E-41" target="a221Flo-CQe9ytXhki4E-28">
          <mxGeometry relative="1" as="geometry">
            <mxPoint x="900" y="664" as="targetPoint" />
          </mxGeometry>
        </mxCell>
        <mxCell id="a221Flo-CQe9ytXhki4E-41" value="ViewC&lt;span style=&quot;text-align: left;&quot;&gt;reationDate&lt;/span&gt;" style="ellipse;whiteSpace=wrap;html=1;" vertex="1" parent="1">
          <mxGeometry x="850" y="720" width="120" height="80" as="geometry" />
        </mxCell>
      </root>
    </mxGraphModel>
  </diagram>
</mxfile>
